<svg id="Layer_1" data-name="Layer 1" xmlns="http://www.w3.org/2000/svg" viewBox="0 0 431.82 535.93"><path d="M698.46,632.89A82.72,82.72,0,0,0,726.83,605c3.5-5.87,6-12.66,5.21-19.59s-4.5-13.15-7.83-19.22A320.86,320.86,0,0,1,685.81,438c-.16-1.91-3.16-1.93-3,0a323.79,323.79,0,0,0,34.58,121.75q2.37,4.6,4.87,9.14a87.15,87.15,0,0,1,4.8,9.44,26,26,0,0,1,2.14,9.9A26.35,26.35,0,0,1,727,598c-2.86,6.91-7.72,13.11-12.84,18.5a82.07,82.07,0,0,1-17.25,13.8,1.5,1.5,0,0,0,1.52,2.59Z" transform="translate(-615.76 -136.64)"/><path d="M685,434.35a1.5,1.5,0,0,0,0-3,1.5,1.5,0,0,0,0,3Z" transform="translate(-615.76 -136.64)"/><path d="M685.4,432.91l-1.29-41.66c-.38-12-.22-24.27-2.45-36.13-2.06-11-6.78-20.93-15.15-28.46S648,314.41,638.87,308.17c-9.8-6.68-19.65-16.36-20.11-29l-2.26,1.3a162.78,162.78,0,0,0,39.14,17.11,1.53,1.53,0,0,0,1.9-1.44,721.37,721.37,0,0,0,1.85-100.46l-2.79.76a164.32,164.32,0,0,0,33,44.36c2.89,2.76,6.11,6.32,10.22,7.09,3.82.72,6.89-1.61,9-4.58,2.74-3.9,4.69-8.5,6.81-12.75q3.45-6.94,6.66-14,7.13-15.72,13-32l-2.5.66a190.36,190.36,0,0,1,32.41,51.5c.42,1,1.71.84,2.36.3a200.73,200.73,0,0,0,60.25-83.25c1.64-4.27,3.66-14.29,9.72-14.2,3.55.05,6.56,3.92,8.81,6.26a100.57,100.57,0,0,1,6.69,7.72,104.45,104.45,0,0,1,22,62.8,1.52,1.52,0,0,0,2.8.76,444.05,444.05,0,0,1,40.9-53.61c2.46-2.75,7.82-10.86,11.43-5.49a32.53,32.53,0,0,1,2.78,6.23q1.77,4.38,3.47,8.8,6.24,16.17,11.69,32.65,6.21,18.7,11.36,37.73a1.53,1.53,0,0,0,2.21.9A144.9,144.9,0,0,1,1020.68,226l-1.5-1.5c-.1,5.78-4.07,10.12-8,14-4.06,4-8.6,7.84-11.26,13-6.46,12.42-1.09,27.11,7.38,37.06,5.35,6.28,11.94,11.32,18.45,16.33,1.53,1.17,3-1.43,1.52-2.59-10.86-8.35-22.79-17.63-26.27-31.59-1.61-6.47-1.2-13.54,2.42-19.28,2.95-4.68,7.4-8.2,11.23-12.12,4-4.11,7.39-8.81,7.5-14.74a1.51,1.51,0,0,0-1.5-1.5,148.46,148.46,0,0,0-60.61,18.8l2.21.89a722.67,722.67,0,0,0-23.63-71.85q-1.57-4-3.19-8.06c-1-2.36-1.76-4.93-3.33-7-2.85-3.69-7-3.09-10.24-.17-4.31,3.94-8,8.77-11.8,13.2q-5.88,6.88-11.47,14-12.45,15.87-23.46,32.81l2.79.76a107.67,107.67,0,0,0-19.69-60.66c-4.08-5.74-8.71-11.53-14.11-16.09-2.35-2-5.2-3.52-8.37-2.86-2.68.57-4.69,2.59-6.14,4.82a41.54,41.54,0,0,0-3.74,8.59q-2,5.31-4.22,10.51a200.39,200.39,0,0,1-22,38.22,198.55,198.55,0,0,1-34.27,36l2.35.31a192.66,192.66,0,0,0-32.88-52.11,1.52,1.52,0,0,0-2.51.66A428.87,428.87,0,0,1,709.46,236c-1.59,3.05-3.48,8.1-7.27,9-4.13.94-8.13-4-10.76-6.48a158.9,158.9,0,0,1-17.13-19.25A163.4,163.4,0,0,1,659.19,195a1.51,1.51,0,0,0-2.8.76,721.37,721.37,0,0,1-1.85,100.46l1.9-1.45A160,160,0,0,1,618,277.92a1.51,1.51,0,0,0-2.26,1.29c.85,23.14,25.56,33,41.79,44.24A54.71,54.71,0,0,1,670,334.73a44.72,44.72,0,0,1,7.44,15.36c3.26,11.61,3.15,23.9,3.52,35.85l1.46,47c.07,1.93,3.07,1.93,3,0Z" transform="translate(-615.76 -136.64)"/><path d="M1023.6,308.43a56.55,56.55,0,0,1,21,45.18l2.56-1.06a560.42,560.42,0,0,0-46.45-49.89q-7-6.68-14.29-13.1c-.75-.67-2.32-.54-2.51.66a252.12,252.12,0,0,1-22.49,72.2q-4.73,9.7-10.28,19l2.59,1.51c10.13-18.27,4.32-39.81-4.74-57.2-2.43-4.66-5.1-9.2-7.81-13.7-2.4-4-4.7-8.4-8.3-11.46s-7.92-4.11-12.41-4.68c-5.61-.71-11.28-1.08-16.92-1.45a466.3,466.3,0,0,0-68,.48q-16.63,1.33-33.14,3.85c-5.43.82-11,1.54-16.31,2.81-4.39,1-7.29,3.59-7.77,8.22-.62,6-.16,12.24.15,18.22q.48,9.33,1.69,18.6a239.75,239.75,0,0,0,7.8,36.9l2.2-1.7c-15.57-9-32.14-18.66-42.7-33.65a54.17,54.17,0,0,1-7-13.47,1.52,1.52,0,0,0-2.74-.36c-18,28-18.56,62.59-15.39,94.67.91,9.27,2.15,18.51,3.45,27.74l2.5-1.46c-4.41-4.7-6-11.05-7.75-17.08-1.63-5.62-3.61-11.05-7.53-15.5-3.52-4-8.49-6.59-13.89-5.7-4.68.77-8.25,4.12-10.56,8.1-2.88,5-4.21,10.74-5,16.37-.27,1.88,2.62,2.7,2.89.79,1.08-7.69,3.48-19.92,12.4-22.15,5.19-1.3,9.83,1.81,12.89,5.76,3.38,4.36,4.87,9.57,6.37,14.79,1.74,6,3.67,12.08,8,16.74,1.14,1.2,2.7-.11,2.51-1.46-4.42-31.41-8.76-64.79.52-95.76a95.5,95.5,0,0,1,11.12-24.33l-2.74-.36c6.24,18,21.37,30.52,37,40.47,4.61,2.94,9.34,5.71,14.08,8.44a1.51,1.51,0,0,0,2.2-1.69,235.46,235.46,0,0,1-9.66-63c0-2.53,0-5.07,0-7.61.05-2.2.11-4.69,2-6.16,1.53-1.16,3.6-1.5,5.43-1.85,2.76-.52,5.53-1,8.3-1.45Q813,300,829.22,298.43A466.67,466.67,0,0,1,893,296.82q8.06.35,16.1,1c5,.39,10.15.53,15,1.72s8,3.91,10.71,7.93,5,8.15,7.41,12.28c10.52,18.17,20,41.49,8.87,61.65a1.5,1.5,0,0,0,2.59,1.51,254.66,254.66,0,0,0,28.85-70.4q2.58-10.65,4.23-21.48l-2.51.67a559.17,559.17,0,0,1,48.16,48.23q6.42,7.27,12.58,14.76c.87,1.05,2.53.14,2.56-1.06a59.37,59.37,0,0,0-21.84-47.3c-1.49-1.2-3.62.91-2.12,2.12Z" transform="translate(-615.76 -136.64)"/><path d="M722.37,382c29.57,2.16,59.24,2.65,88.88,2.1S870.42,382,900,380.05c16.63-1.09,33.26-2.29,49.88-3.5,1.92-.14,1.93-3.14,0-3-29.61,2.15-59.23,4.3-88.89,5.79s-59.12,2.31-88.7,1.83c-16.64-.27-33.28-1-49.88-2.17-1.93-.14-1.92,2.86,0,3Z" transform="translate(-615.76 -136.64)"/><path d="M841,656c-18.43-11-37.06-21.76-55-33.53-18.15-11.87-35.61-24.86-51.26-39.91-7.88-7.58-15.27-16.21-18.17-27a1.51,1.51,0,0,0-2.9.8c2.61,9.66,8.59,17.61,15.42,24.74a243.46,243.46,0,0,0,24.66,22c17.1,13.54,35.47,25.35,54.11,36.64,10.51,6.36,21.11,12.57,31.65,18.88A1.5,1.5,0,0,0,841,656Z" transform="translate(-615.76 -136.64)"/><path d="M957.19,377.39l24-.52c.73,0,1.6-.68,1.5-1.5a178.35,178.35,0,0,1,6.35-74.47l-2.9-.79c-3,11.38-3.56,23.17-3.65,34.88-.09,12.22-.57,24.43-.56,36.64,0,24.66,1.32,49.3,1.16,74-.17,24.07-1.69,48.25-6.77,71.83-4.88,22.64-13.48,44.24-23.5,65.06-5.2,10.81-10.81,21.42-16.62,31.91-2.14,3.86-3.76,8.58-7,11.68-1.82,1.74-4.43,2.77-6.66,3.87a82.7,82.7,0,0,0-7.66,4.09,76.12,76.12,0,0,0-6.57,4.7c-1.51,1.2.62,3.32,2.12,2.13A82.25,82.25,0,0,1,925.19,632a23.75,23.75,0,0,0,6.32-4,22.38,22.38,0,0,0,3.7-5.24c5.42-10,10.82-19.95,15.93-30.08,10.45-20.69,19.8-42.13,25.73-64.59,6.14-23.24,8.43-47.36,9.06-71.32.66-24.69-.47-49.38-.86-74.07-.19-12.36.1-24.69.33-37.05.22-12-.13-24.07,1.8-36q.72-4.46,1.87-8.82a1.5,1.5,0,0,0-2.9-.79,180.6,180.6,0,0,0-6.45,75.26l1.5-1.5-24,.52c-1.93,0-1.93,3,0,3Z" transform="translate(-615.76 -136.64)"/><path d="M796.31,321.4c.09,5.93.14,11.87.27,17.8.1,4.47.42,9.2,2.58,13.21,2.26,4.2,6.44,6.48,11,7.41,5.2,1.07,10.65,1.18,15.92,1.58,23.7,1.79,47.5,2.92,71.26,1.83,5.91-.27,11.81-.67,17.7-1.24,4.78-.46,10.19-.51,14.57-2.71a9.14,9.14,0,0,0,4.35-4.41,15,15,0,0,0,.78-7.36A69.85,69.85,0,0,0,932.82,335a25.75,25.75,0,0,0-5.38-10.7c-3.08-3.43-7.29-5.09-11.79-5.64-5.21-.63-10.51,0-15.61-1.51-2.66-.77-5.2-1.88-7.83-2.75a39.76,39.76,0,0,0-8.14-1.74c-5.78-.66-11.66-.41-17.47-.39l-17.87.05-35.76.12-8.94,0a1.5,1.5,0,0,0,0,3l68.53-.22c5.33,0,10.74-.06,16,1.2s9.76,3.79,15,4.46c4.83.62,9.82,0,14.58,1.22a14.54,14.54,0,0,1,9.07,6.85,32.5,32.5,0,0,1,3.7,11.28c.32,1.93.55,3.88.73,5.84.2,2.23.55,4.68-.12,6.87-1.28,4.17-6.36,4.94-10.08,5.38-5.63.66-11.28,1.15-16.94,1.52-22.58,1.47-45.24.79-67.8-.69q-8.5-.56-17-1.25c-4.43-.35-9.37-.39-13.4-2.53s-5.69-6.16-6.31-10.46c-.7-5-.45-10.09-.52-15.08l-.13-8.43a1.5,1.5,0,0,0-3,0Z" transform="translate(-615.76 -136.64)"/><path d="M885,326.25l-12.34.13a1.51,1.51,0,0,0-1.44,1.9c1.72,4.52,6.12,6,9.88,8.42,1.78,1.15,3.89,3,4.12,5.23.21,2-1.4,3.39-3.15,4a19.53,19.53,0,0,1-6.18.86,27.23,27.23,0,0,1-7.15-.53,11.91,11.91,0,0,1-6-3.94A14.12,14.12,0,0,0,857.1,338c-5.12-1.77-10.65,1.1-15.7-.91l.36,2.74c4.74-2.55,10.34-5.93,11.65-11.58.64-2.76-.44-6,1.4-8.41a7.9,7.9,0,0,1,5.42-2.72c5.49-.58,9.4,3.44,11.41,8.18a31.29,31.29,0,0,1,2.16,8.52c.25,2.14.34,5.85-2.49,6.27-3.09.46-6.63-2-8.63-4.08a14,14,0,0,1-3.85-8.47l-.74,1.3a4.73,4.73,0,0,1,3.76-.86c1.88.39,2.69-2.51.79-2.89a7.66,7.66,0,0,0-5.74.93,2,2,0,0,0-1,2.23,15.91,15.91,0,0,0,.55,2.83,17.43,17.43,0,0,0,5.82,8.6c2.67,2.13,6.71,4.17,10.22,3.22s4.56-4.82,4.39-8.09c-.35-6.87-3-15.08-9.07-18.95-4.81-3.08-12.45-2.24-15.74,2.69-2.32,3.47-.43,7.79-2.54,11.33s-5.87,5.52-9.28,7.36a1.52,1.52,0,0,0,.36,2.74,16.74,16.74,0,0,0,7.67.71c2.52-.21,5.2-.65,7.67.09s4,3,5.74,4.75a13.49,13.49,0,0,0,6.67,3.68,33.42,33.42,0,0,0,8.17.53,20.43,20.43,0,0,0,6.68-1,7.58,7.58,0,0,0,4.57-4.05,7,7,0,0,0-1-6.77c-1.73-2.44-4.22-3.9-6.78-5.31-2.23-1.22-4.87-2.59-5.82-5.11l-1.45,1.9,12.34-.13a1.5,1.5,0,0,0,0-3Z" transform="translate(-615.76 -136.64)"/><path d="M759.78,421.72A230.15,230.15,0,0,1,786,406.46c4.62-2.29,9.32-4.44,14.1-6.4s9.63-3.79,14.76-4,10.52,1.68,15.21-1.11a1.5,1.5,0,0,0-1.51-2.59c-4,2.37-9.14.52-13.47.69-5.11.21-10,1.83-14.71,3.72A227.27,227.27,0,0,0,772.92,410q-7.5,4.28-14.66,9.1c-1.59,1.08-.09,3.68,1.52,2.59Z" transform="translate(-615.76 -136.64)"/><path d="M912.89,391.26a112.45,112.45,0,0,1,54,22.26c1.53,1.18,3-1.43,1.51-2.59a114.06,114.06,0,0,0-55.46-22.67c-1.91-.25-1.89,2.75,0,3Z" transform="translate(-615.76 -136.64)"/><path d="M780.46,431.29a23.08,23.08,0,0,1,38.36-5.56c1.29,1.44,3.41-.69,2.12-2.13a26.77,26.77,0,0,0-18-8.69,26.3,26.3,0,0,0-25.08,14.86c-.83,1.74,1.76,3.26,2.59,1.52Z" transform="translate(-615.76 -136.64)"/><path d="M919.52,427.29c2.16-6.14,8.85-9.86,15.19-9.46,6.88.43,12.75,5.4,15.69,11.41.84,1.74,3.43.22,2.59-1.51-3.46-7.09-10.59-12.59-18.63-12.92-7.63-.31-15.18,4.43-17.73,11.68-.64,1.83,2.26,2.61,2.89.8Z" transform="translate(-615.76 -136.64)"/><path d="M885.66,433.59a89.5,89.5,0,0,0-3.25,27.1c.07,1.93,3.07,1.94,3,0a86.59,86.59,0,0,1,3.15-26.31,1.5,1.5,0,0,0-2.9-.79Z" transform="translate(-615.76 -136.64)"/><path d="M885,483.11c-1.54,7.68,1.39,14.9,5.06,21.52,2,3.54,4.13,7,6.06,10.52.88,1.62,2.13,3.49,2.46,5.33.4,2.23-2.56,2.12-4,2.16A45.35,45.35,0,0,1,879,520.36c-1.84-.61-2.62,2.29-.8,2.89a48.11,48.11,0,0,0,14.67,2.41c2,0,4.38.1,6.27-.82a4.38,4.38,0,0,0,2.35-5,22,22,0,0,0-2.62-5.89c-1-1.9-2.11-3.76-3.21-5.62a92.12,92.12,0,0,1-6-11.26c-1.73-4.19-2.68-8.7-1.78-13.2.38-1.88-2.51-2.69-2.89-.8Z" transform="translate(-615.76 -136.64)"/><path d="M917.86,569.92c-12.91,1.06-26,2.05-38.9.38a70.69,70.69,0,0,1-18.2-4.7,62,62,0,0,1-16.26-10.23A176.67,176.67,0,0,1,829,539.7a1.5,1.5,0,0,0-2.35.31,154.36,154.36,0,0,0-15.84,50.67c-.39,3-.75,6-.91,8.94-.14,2.61.27,5.27,2.29,7.13s4.51,2.61,6.88,3.54q4.14,1.63,8.4,2.94a131.23,131.23,0,0,0,16.82,4,200.59,200.59,0,0,0,35,2.52c13.34-.08,26.64-1.08,39.93-2.12,1.91-.15,1.92-3.15,0-3-22.55,1.77-45.36,3.47-67.89.63A130.16,130.16,0,0,1,818.8,607c-2.16-.88-5-1.8-5.73-4.29s0-5.48.23-8a148.54,148.54,0,0,1,2.81-17,152.23,152.23,0,0,1,13.1-36.18l-2.36.3c8.94,9.81,18.22,19.82,30.45,25.51,11.93,5.55,25.23,7,38.26,6.84,7.45-.08,14.88-.64,22.3-1.25,1.91-.16,1.93-3.16,0-3Z" transform="translate(-615.76 -136.64)"/><path d="M914.17,593.33a138.13,138.13,0,0,1-30-1.62c-8.54-1.35-18.06-2.42-24.94,3.94-3,2.77-5,6.76-4.45,10.91l2.56-1.06c-5-4.54-6.55-11.47-11.06-16.36-3.86-4.18-10.68-7.34-15.9-3.68-1.57,1.1-.07,3.7,1.52,2.59,4.59-3.22,10.57.66,13.36,4.55,3.5,4.91,5.41,10.87,10,15,.85.78,2.74.33,2.56-1.06-1-7.55,6.87-12.32,13.45-12.86,4.47-.36,8.92.4,13.32,1.09,4.55.72,9.12,1.27,13.72,1.55a131.63,131.63,0,0,0,15.89,0c1.92-.11,1.93-3.11,0-3Z" transform="translate(-615.76 -136.64)"/><path d="M1003,316.37l3.07,40,2.79-.76a348.76,348.76,0,0,0-20.15-33.57c-1.08-1.59-3.68-.09-2.59,1.52a351.63,351.63,0,0,1,20.15,33.57,1.52,1.52,0,0,0,2.8-.76l-3.07-40c-.15-1.91-3.15-1.93-3,0Z" transform="translate(-615.76 -136.64)"/><path d="M1005.53,311.33v-5.06a1.5,1.5,0,0,0-3,0v5.06a1.5,1.5,0,0,0,3,0Z" transform="translate(-615.76 -136.64)"/><path d="M721.72,376.61a161.89,161.89,0,0,1-40.25-1.08c-1.89-.29-2.7,2.6-.8,2.89a165,165,0,0,0,41.05,1.19c1.9-.18,1.92-3.19,0-3Z" transform="translate(-615.76 -136.64)"/><path d="M678,339.82a50.82,50.82,0,0,1,16.55-10.15c6.63-2.45,13.67-3.8,20.53-5.43l43.36-10.34,24.23-5.77c1.74-.42,1.2-2.8-.4-2.95a64.7,64.7,0,0,0-26.94,3.3,63.06,63.06,0,0,0-12.12,5.66,18.1,18.1,0,0,0-5,4.12,13,13,0,0,0-2.44,5.78c-1,5.64-1.59,11.41-2.37,17.09a1.55,1.55,0,0,0,1.05,1.84,1.5,1.5,0,0,0,1.84-1q1-7.29,2-14.58a18.32,18.32,0,0,1,1.41-5.9,11.75,11.75,0,0,1,4.34-4.29,60.52,60.52,0,0,1,23.7-8.63,61.59,61.59,0,0,1,14.55-.35l-.4-2.95-44.09,10.51L716,320.94c-7.12,1.7-14.43,3.09-21.34,5.52a54.78,54.78,0,0,0-18.75,11.24c-1.43,1.3.69,3.42,2.12,2.12Z" transform="translate(-615.76 -136.64)"/><path d="M730.46,515.57c12.71-10.28,29.58-20.82,46.59-15.93a1.51,1.51,0,0,0,.8-2.9c-14-4-28.1,1.78-39.67,9.43-3.4,2.25-6.66,4.71-9.84,7.28-1.5,1.21.64,3.32,2.12,2.12Z" transform="translate(-615.76 -136.64)"/><path d="M744.88,558.38a84,84,0,0,1,36.38-33.51,80.44,80.44,0,0,1,13.26-5,1.5,1.5,0,0,0-.8-2.89,86.83,86.83,0,0,0-43,27.77,85.49,85.49,0,0,0-8.46,12.07,1.5,1.5,0,0,0,2.59,1.52Z" transform="translate(-615.76 -136.64)"/><path d="M779,569.56A34.8,34.8,0,0,1,792.21,545c1.52-1.19-.61-3.29-2.12-2.12A37.69,37.69,0,0,0,776,569.56c-.15,1.92,2.85,1.91,3,0Z" transform="translate(-615.76 -136.64)"/><path d="M932.6,492.32l9.9,3.54c2.76,1,5.59,1.87,8.26,3.11,3.92,1.82,8.66,4.71,8.57,9.6,0,1.93,3,1.93,3,0,.1-5.63-4.49-9.42-9.11-11.74a76.72,76.72,0,0,0-8.77-3.45l-11.05-3.95c-1.82-.66-2.61,2.24-.8,2.89Z" transform="translate(-615.76 -136.64)"/><path d="M934.42,523.11a13.89,13.89,0,0,1,14,8.78,1.54,1.54,0,0,0,1.85,1,1.51,1.51,0,0,0,1-1.84,16.92,16.92,0,0,0-16.89-11,1.54,1.54,0,0,0-1.5,1.5,1.51,1.51,0,0,0,1.5,1.5Z" transform="translate(-615.76 -136.64)"/><path d="M932.11,546l12,7.95a1.5,1.5,0,1,0,1.52-2.59l-12-7.95a1.5,1.5,0,1,0-1.51,2.59Z" transform="translate(-615.76 -136.64)"/><path d="M835,656.77a198.45,198.45,0,0,0,20.62,12.5c1.76.93,3.54,1.92,5.38,2.7a5.13,5.13,0,0,0,5.09-.15c1.27-.89,2.09-2.31,3.13-3.45a27.78,27.78,0,0,1,3.44-3.16c5-3.88,11.1-6.15,16.94-8.47,6.22-2.47,12.28-5.14,17.72-9.1a60.71,60.71,0,0,0,15.93-17.18c1-1.64-1.58-3.15-2.59-1.51a57.54,57.54,0,0,1-13.39,15,67.32,67.32,0,0,1-16.72,9.21c-5.62,2.26-11.41,4.32-16.59,7.54a32.39,32.39,0,0,0-7,5.69c-.82.91-1.69,2.65-2.84,3.13-1.44.59-3.93-1.24-5.14-1.86a200.35,200.35,0,0,1-22.48-13.47c-1.59-1.1-3.1,1.5-1.52,2.59Z" transform="translate(-615.76 -136.64)"/></svg>